<svg width="25" height="24" viewBox="0 0 25 24" fill="none" xmlns="http://www.w3.org/2000/svg">
<path fill-rule="evenodd" clip-rule="evenodd" d="M12.5 24C5.9 24 0.5 18.6 0.5 12C0.5 5.4 5.9 0 12.5 0C19.1 0 24.5 5.4 24.5 12C24.5 18.6 19.1 24 12.5 24ZM22.625 13.65C22.25 13.5 19.475 12.675 16.25 13.2C17.6 16.875 18.125 19.875 18.275 20.475C20.525 18.975 22.175 16.5 22.625 13.65ZM16.475 21.45C16.325 20.55 15.725 17.4 14.3 13.65H14.225C8.45 15.675 6.35 19.65 6.2 20.025C7.925 21.375 10.1 22.2 12.5 22.2C13.925 22.275 15.275 21.975 16.475 21.45ZM4.85 18.9C5.075 18.525 7.925 13.875 13.175 12.15C13.325 12.075 13.475 12.075 13.55 12C13.325 11.4 13.025 10.8 12.725 10.275C7.625 11.775 2.675 11.775 2.225 11.7C2.225 11.775 2.225 11.925 2.225 12C2.225 14.625 3.275 17.025 4.85 18.9ZM2.45 9.9C2.9 9.9 7.1 9.9 11.9 8.625C10.175 5.625 8.375 3.075 8.075 2.7C5.3 4.125 3.125 6.75 2.45 9.9ZM10.1 2.025C10.4 2.4 12.275 4.95 13.925 8.025C17.6 6.675 19.1 4.575 19.325 4.35C17.525 2.775 15.125 1.8 12.5 1.8C11.675 1.8 10.85 1.875 10.1 2.025ZM20.45 5.55C20.225 5.85 18.5 8.025 14.75 9.6C14.975 10.125 15.2 10.575 15.425 11.1C15.5 11.25 15.575 11.475 15.65 11.625C19.025 11.175 22.475 11.85 22.775 11.925C22.7 9.525 21.875 7.275 20.45 5.55Z" fill="white"/>
</svg>
