<svg width="23" height="24" viewBox="0 0 23 24" fill="none" xmlns="http://www.w3.org/2000/svg">
<path d="M21.25 0.75H1.75C1.35218 0.75 0.970645 0.908033 0.689343 1.18934C0.408033 1.47065 0.25 1.85218 0.25 2.25V21.75C0.25 22.1478 0.408033 22.5293 0.689343 22.8106C0.970645 23.092 1.35218 23.25 1.75 23.25H21.25C21.6478 23.25 22.0293 23.092 22.3106 22.8106C22.592 22.5293 22.75 22.1478 22.75 21.75V2.25C22.75 1.85218 22.592 1.47065 22.3106 1.18934C22.0293 0.908033 21.6478 0.75 21.25 0.75ZM6.91525 19.9455H3.5305V9.1875H6.91525V19.9455ZM5.2225 7.71075C4.83338 7.70955 4.45333 7.59307 4.13036 7.37604C3.80739 7.159 3.55598 6.85111 3.4079 6.49126C3.2598 6.13142 3.22167 5.73575 3.29832 5.35425C3.37496 4.97275 3.56293 4.62251 3.8385 4.34777C4.11407 4.07304 4.46488 3.88613 4.84661 3.81065C5.22835 3.73517 5.62389 3.77451 5.98328 3.92369C6.34268 4.07287 6.6498 4.32522 6.86587 4.64885C7.0819 4.97248 7.19725 5.35288 7.19725 5.742C7.19732 6.00107 7.14633 6.25762 7.04703 6.49691C6.94774 6.73621 6.80219 6.95355 6.61872 7.13646C6.43524 7.31938 6.21747 7.46426 5.97787 7.56285C5.73827 7.6614 5.48157 7.71165 5.2225 7.71075ZM19.4657 19.9455H16.15V14.742C16.15 13.4768 16.15 11.9295 14.3875 11.9295C12.625 11.9295 12.4127 13.266 12.4127 14.6715V20.016H9.1V9.1875H12.202V10.6642H12.2725C12.5925 10.1111 13.0567 9.65535 13.6156 9.34568C14.1746 9.03608 14.8071 8.88412 15.4457 8.90625C18.8305 8.90625 19.465 11.1562 19.465 14.0392L19.4657 19.9455Z" fill="white"/>
</svg>
