<svg width="25" height="24" viewBox="0 0 25 24" fill="none" xmlns="http://www.w3.org/2000/svg">
<path d="M12.5 2.775C15.5 2.775 15.8593 2.78625 17.0458 2.84025C18.2897 2.79786 19.5018 3.23835 20.4282 4.0695C21.2594 4.99598 21.6999 6.20807 21.6575 7.452C21.7115 8.64075 21.725 9 21.725 12C21.725 15 21.7137 15.3593 21.6597 16.5458C21.7021 17.7897 21.2617 19.0018 20.4305 19.9282C19.5041 20.7595 18.292 21.1999 17.048 21.1575C15.8615 21.2115 15.506 21.2228 12.5023 21.2228C9.4985 21.2228 9.143 21.2115 7.9565 21.1575C6.71257 21.1999 5.50047 20.7594 4.574 19.9282C3.74278 19.0019 3.30228 17.7897 3.34475 16.5458C3.2885 15.3593 3.275 15.0037 3.275 12C3.275 8.99625 3.28625 8.64075 3.34025 7.45425C3.29786 6.21032 3.73835 4.99822 4.5695 4.07175C5.49654 3.24005 6.70955 2.79952 7.95425 2.8425C9.14075 2.7885 9.5 2.775 12.5 2.775ZM12.5 0.75C9.44525 0.75 9.062 0.76275 7.86125 0.8175C6.10935 0.786083 4.41427 1.43909 3.13625 2.63775C1.93739 3.91565 1.28434 5.61082 1.316 7.36275C1.26275 8.562 1.25 8.94525 1.25 12C1.25 15.0548 1.26275 15.438 1.3175 16.6388C1.28608 18.3907 1.93909 20.0858 3.13775 21.3638C4.41565 22.5626 6.11082 23.2157 7.86275 23.184C9.06275 23.2388 9.44675 23.2515 12.5015 23.2515C15.5563 23.2515 15.9395 23.2388 17.1403 23.184C18.8922 23.2154 20.5872 22.5624 21.8652 21.3638C23.0641 20.0858 23.7171 18.3907 23.6855 16.6388C23.7402 15.4387 23.753 15.0548 23.753 12C23.753 8.94525 23.7402 8.562 23.6855 7.36125C23.7169 5.60935 23.0639 3.91427 21.8652 2.63625C20.5873 1.43739 18.8922 0.784343 17.1403 0.816C15.938 0.76275 15.5548 0.75 12.5 0.75Z" fill="white"/>
<path d="M12.5 6.22559C11.3578 6.22559 10.2413 6.56429 9.29156 7.19885C8.34184 7.83345 7.60167 8.73533 7.16458 9.79058C6.72748 10.8458 6.61312 12.007 6.83594 13.1273C7.05877 14.2474 7.60879 15.2764 8.41646 16.0841C9.22406 16.8918 10.2531 17.4418 11.3733 17.6646C12.4935 17.8874 13.6548 17.7731 14.71 17.336C15.7652 16.8989 16.6671 16.1587 17.3017 15.209C17.9363 14.2593 18.275 13.1428 18.275 12.0006C18.275 10.4689 17.6665 9.00008 16.5835 7.91708C15.5005 6.83402 14.0316 6.22559 12.5 6.22559ZM12.5 15.7506C11.7583 15.7506 11.0333 15.5306 10.4166 15.1186C9.79991 14.7065 9.31924 14.1209 9.03544 13.4356C8.75164 12.7505 8.67731 11.9964 8.82206 11.269C8.96674 10.5416 9.32389 9.87338 9.84836 9.3489C10.3728 8.8245 11.0409 8.46735 11.7684 8.32268C12.4958 8.17793 13.2498 8.25218 13.935 8.53605C14.6202 8.81985 15.2059 9.30053 15.618 9.91718C16.03 10.5339 16.25 11.2589 16.25 12.0006C16.25 12.9952 15.8549 13.949 15.1516 14.6522C14.4483 15.3555 13.4946 15.7506 12.5 15.7506Z" fill="white"/>
<path d="M18.5053 7.34502C19.2508 7.34502 19.8553 6.7406 19.8553 5.99502C19.8553 5.24944 19.2508 4.64502 18.5053 4.64502C17.7597 4.64502 17.1553 5.24944 17.1553 5.99502C17.1553 6.7406 17.7597 7.34502 18.5053 7.34502Z" fill="white"/>
</svg>
