<svg width="23" height="24" viewBox="0 0 23 24" fill="none" xmlns="http://www.w3.org/2000/svg">
<path d="M21.25 0.75H1.75C1.35218 0.75 0.970645 0.908033 0.689343 1.18934C0.408033 1.47065 0.25 1.85218 0.25 2.25V21.75C0.25 22.1478 0.408033 22.5293 0.689343 22.8106C0.970645 23.092 1.35218 23.25 1.75 23.25H21.25C21.6478 23.25 22.0293 23.092 22.3106 22.8106C22.592 22.5293 22.75 22.1478 22.75 21.75V2.25C22.75 1.85218 22.592 1.47065 22.3106 1.18934C22.0293 0.908033 21.6478 0.75 21.25 0.75ZM18.9422 6.081L17.7355 7.2375C17.6843 7.2764 17.6448 7.32854 17.6211 7.3883C17.5975 7.44805 17.5906 7.51312 17.6012 7.5765V16.0778C17.5905 16.1411 17.5973 16.2062 17.621 16.266C17.6447 16.3258 17.6843 16.3779 17.7355 16.4167L18.9137 17.574V17.8275H12.9888V17.574L14.209 16.3875C14.3298 16.2675 14.3298 16.2323 14.3298 16.0485V9.17775L10.9352 17.8027H10.477L6.52225 9.17775V14.9528C6.50628 15.0726 6.5177 15.1946 6.55562 15.3094C6.59356 15.4242 6.65702 15.529 6.74125 15.6157L8.329 17.541V17.7952H3.829V17.541L5.41675 15.6157C5.50027 15.5289 5.56229 15.4237 5.59785 15.3085C5.63339 15.1934 5.64149 15.0716 5.6215 14.9528V8.27325C5.63041 8.18197 5.61774 8.08995 5.58453 8.00445C5.5513 7.91902 5.49846 7.84253 5.43025 7.78125L4.01725 6.081V5.8275H8.3995L11.7865 13.2525L14.7648 5.8275H18.9415L18.9422 6.081Z" fill="white"/>
</svg>
